<svg width="29" height="27" viewBox="0 0 29 27" fill="none" xmlns="http://www.w3.org/2000/svg">
<path d="M18.7791 15.75H17.8292L17.4925 15.4462C18.6709 14.1637 19.3803 12.4987 19.3803 10.6875C19.3803 6.64875 15.8812 3.375 11.5644 3.375C7.24752 3.375 3.74837 6.64875 3.74837 10.6875C3.74837 14.7262 7.24752 18 11.5644 18C13.5003 18 15.2799 17.3363 16.6508 16.2338L16.9754 16.5487V17.4375L22.9877 23.0513L24.7794 21.375L18.7791 15.75ZM11.5644 15.75C8.57023 15.75 6.15329 13.4888 6.15329 10.6875C6.15329 7.88625 8.57023 5.625 11.5644 5.625C14.5585 5.625 16.9754 7.88625 16.9754 10.6875C16.9754 13.4888 14.5585 15.75 11.5644 15.75Z" fill="black"/>
</svg>
